<?xml version="1.0" encoding="utf-8"?>
<svg version="1.1" id="Layer_1" xmlns="http://www.w3.org/2000/svg" xmlns:xlink="http://www.w3.org/1999/xlink" x="0px" y="0px" width="368.112px" height="368.4px" viewBox="-35 -35 180 180" enable-background="new -25 -25 158 158" xml:space="preserve">
	<path fill="#C39FCA" d="M31.3,45.1c0-3.4,0.5-6.5,1.6-9.2c1-2.8,2.5-5.1,4.5-7s4.4-3.4,7.2-4.5c2.8-1,6-1.6,9.6-1.6 c3.7,0,7,0.5,9.899,1.6c2.801,1.1,5.2,2.6,7,4.5l36,36c0.7-3.5,1.101-7.1,1.101-10.7c0-29.9-24.2-54.1-54.1-54.1S0,24.3,0,54.2 c0,29.9,24.2,54.1,54.1,54.1h0.1L31.4,85.5V45.1H31.3z" />
	<path fill="#C41230" d="M47.3,50.1c0.8,0.8,1.8,1.5,2.9,1.9c1.1,0.5,2.3,0.7,3.5,0.7S56.1,52.5,57.1,52c1.101-0.5,2-1.1,2.801-1.9 c0.8-0.8,1.5-1.7,2-2.8c0.5-1.1,0.699-2.2,0.699-3.3c0-1.3-0.199-2.5-0.699-3.6s-1.101-2.1-1.9-3s-1.8-1.5-2.9-2 c-1.1-0.5-2.3-0.8-3.5-0.8c-1.2,0-2.4,0.3-3.5,0.8s-2,1.2-2.9,2c-0.8,0.8-1.5,1.8-2,2.9c-0.5,1.1-0.7,2.2-0.7,3.4 c0,1.2,0.2,2.4,0.7,3.5C45.8,48.3,46.5,49.3,47.3,50.1z M71.1,28.9C71,28.9,71.1,28.9,71.1,28.9c1.801,1.9,3.2,4.2,4.2,6.8 c0.9,2.6,1.4,5.3,1.4,8.3c0,3.3-0.601,6.3-1.9,8.9S71.9,57.6,69.9,59.4c-1.9,1.7-4.101,3.1-6.4,3.9c-2.3,0.9-4.5,1.3-6.6,1.3 c-2.5,0-4.8-0.4-6.8-1.2c-2-0.8-3.7-2-5-3.5v23.7l-13.7,2l22.8,22.8c26.2,0,48-18.7,53-43.4L71.1,28.9z" />
	<path fill="#FFFFFF" d="M75.3,35.7C74.4,33.1,73,30.9,71.1,29c-1.899-1.9-4.199-3.4-7-4.5c-2.8-1.1-6.1-1.6-9.899-1.6 c-3.6,0-6.8,0.5-9.6,1.6c-2.8,1-5.2,2.5-7.2,4.5c-2,1.9-3.5,4.3-4.5,7c-1,2.8-1.6,5.8-1.6,9.2v40.5l13.7-2V60c1.4,1.6,3,2.7,5,3.5 s4.3,1.2,6.8,1.2c2.101,0,4.3-0.4,6.601-1.3c2.3-0.9,4.5-2.2,6.399-3.9c1.9-1.7,3.601-3.9,4.9-6.5s1.899-5.5,1.899-8.9 C76.7,41,76.2,38.3,75.3,35.7z M61.9,47.3c-0.5,1.1-1.101,2-2,2.8C59.1,50.9,58.1,51.6,57.1,52C56,52.5,54.9,52.7,53.7,52.7 s-2.4-0.2-3.5-0.7c-1.1-0.5-2.1-1.1-2.9-1.9c-0.8-0.8-1.5-1.8-2-2.9c-0.5-1.1-0.7-2.3-0.7-3.5c0-1.2,0.2-2.4,0.7-3.4 c0.5-1.1,1.1-2,2-2.9c0.8-0.8,1.8-1.5,2.9-2c1.1-0.5,2.2-0.8,3.5-0.8c1.2,0,2.399,0.3,3.5,0.8c1.1,0.5,2.1,1.2,2.899,2 c0.801,0.8,1.4,1.8,1.9,3c0.5,1.1,0.7,2.3,0.7,3.6C62.6,45.1,62.4,46.2,61.9,47.3z" />
</svg>
