<svg xmlns="http://www.w3.org/2000/svg" viewBox="0 0 1816.67 824.56"><ellipse cx="335.53" cy="452.19" fill="#fff" rx="298.1" ry="279.37"></ellipse><path fill="#a0041e" d="M.14 254.86L0 258.03c0-.95.25-1.92.34-2.9zM300.98 512.7c-3.4-1.5-6.6-3.4-9.54-5.7L13.08 283.73C4.34 276.64 0 267.3 0 258.05v283.31c0 47.28 25.3 57.51 25.3 57.51l267.96 210.68c4.75 3.7 12.9 7.8 16.4 9.17-2.64-4.03-8.69-10.49-8.69-15.79zm-203.1 8.4c-23.02 0-47.08-23.3-53.7-52.09-6.64-28.75 6.65-52.07 29.64-52.07 23 0 47.06 23.34 53.7 52.1 6.63 28.77-6.64 52.1-29.65 52.1zm129.25 173.64c-23 0-47.07-23.33-53.7-52.09-6.64-28.78 6.65-52.1 29.67-52.1 23 0 47.06 23.32 53.7 52.1 6.61 28.76-6.66 52.1-29.67 52.1z"></path><path fill="#dd2e44" d="M635.17 281.74L354.94 507a43.53 43.53 0 01-7.66 4.93l-.19 291c0 5.37-6.53 11.92-9.24 16.02 3.6-1.34 12.55-5.53 17.48-9.42 42.16-33.15 268.3-210.66 268.3-210.66s24.62-15.33 24.62-62.6V256.08c0 9.31-4.35 18.6-13.08 25.66zM462.54 669.1c-5.6 26.3-25.9 47.63-45.33 47.63-19.4 0-30.6-21.3-25-47.65 5.6-26.32 25.88-47.65 45.3-47.65 19.42 0 30.6 21.33 25.03 47.65zm81.9-122.05c-5.87 27.13-27.26 49.1-47.73 49.1-20.44 0-32.23-21.97-26.35-49.08 5.9-27.16 27.3-49.13 47.72-49.13 20.5 0 32.27 22 26.37 49.1zm70.92-118.2c-5.8 25.82-26.92 46.7-47.1 46.7-20.2 0-31.85-20.88-26-46.7 5.8-25.76 26.9-46.67 47.08-46.67 20.21 0 31.86 20.9 26.02 46.68zM648.11 255c.03.35.14.72.14 1.1v-1.23z"></path><path fill="#ea596e" stroke="#ea596e" stroke-width="2.32" d="M635.17 230.45L353.97 11.78c-17.44-14.12-46.03-14.12-63.49 0L13.08 232.4C5.91 237.94 2.18 246 1.2 255c-.06.97-.04 2.47-.04 3.44 0 9.3 4.35 18.46 13.07 25.52l277.2 223.07a46.02 46.02 0 009.54 5.7v285.71c0 5.33 1.16 9.96 3.78 13.98 4.16 6.5 11.5 10.98 19.37 10.98 7.78 0 14.34-4.4 18.53-10.74a25.47 25.47 0 004.63-14.22v-286.5a43.94 43.94 0 007.66-4.9l280.23-225.28c8.73-7.06 13.08-16.35 13.08-25.65 0-.37-.1-.74-.14-1.16-.32-8.9-4.58-17.74-12.94-24.5zM335.7 200.87c37.28 0 67.51 24.17 67.51 54 0 29.85-30.23 54.02-67.5 54.02-37.3 0-67.52-24.17-67.52-54 0-29.88 30.21-54.02 67.51-54.02z"></path><path fill="#fff" d="M1038.67 465.28a88 88 0 11-1-105l86-65a195 195 0 100 234zm103-248v106h124v285h105v-285h123v-106h-228zm383 0v391h106v-123h121v-106h-121v-56h186v-106h-187z"></path></svg>